<?xml version="1.0" encoding="UTF-8"?>
<svg xmlns="http://www.w3.org/2000/svg" id="Layer_1" data-name="Layer 1" viewBox="0 0 24 24">
  <path d="m11.5,4.949v1.551c0,.276.224.5.5.5s.5-.224.5-.5v-1.551c1.14-.232,2-1.242,2-2.449,0-1.379-1.121-2.5-2.5-2.5s-2.5,1.121-2.5,2.5c0,1.208.86,2.217,2,2.449Zm.5-3.949c.827,0,1.5.673,1.5,1.5s-.673,1.5-1.5,1.5-1.5-.673-1.5-1.5.673-1.5,1.5-1.5Zm11,22.5c0,.276-.224.5-.5.5s-.5-.224-.5-.5c0-1.637-.994-3.026-2.596-3.627l-5.565-1.899c-.203-.069-.339-.26-.339-.474v-5.893c0-.789-.535-1.471-1.244-1.587-.451-.07-.886.046-1.227.336-.337.286-.529.703-.529,1.144v8.424c0,.421-.235.796-.615.979-.379.18-.819.132-1.146-.13,0,0-1.716-1.367-1.719-1.371-.606-.562-1.553-.529-2.115.073-.565.604-.534,1.557.064,2.118l1.633,1.551c.325.309.107.856-.342.856-.127,0-.249-.048-.341-.135l-1.64-1.548c-1-.937-1.048-2.518-.106-3.524.928-.994,2.482-1.054,3.49-.149.003.002,1.698,1.347,1.698,1.347l.138-.066v-8.424c0-.734.321-1.429.881-1.905.561-.476,1.307-.68,2.035-.561,1.188.193,2.084,1.3,2.084,2.573v5.535l5.241,1.789c2.016.756,3.259,2.504,3.259,4.568Zm-6.923-14.205c.097,0,.193-.027.278-.085l1.39-.933c.452.446,1.071.723,1.755.723,1.379,0,2.5-1.121,2.5-2.5s-1.121-2.5-2.5-2.5-2.5,1.121-2.5,2.5c0,.336.069.655.189.947l-1.39.933c-.229.153-.291.464-.137.693.097.145.255.222.415.222Zm3.423-4.295c.827,0,1.5.673,1.5,1.5s-.673,1.5-1.5,1.5c-.894,0-1.5-.606-1.5-1.5,0-.827.673-1.5,1.5-1.5Zm-13.245,3.277l1.39.933c.085.058.182.085.278.085.16,0,.318-.077.415-.222.154-.229.093-.54-.137-.693l-1.39-.933c.12-.293.189-.612.189-.947,0-1.379-1.121-2.5-2.5-2.5s-2.5,1.121-2.5,2.5,1.121,2.5,2.5,2.5c.684,0,1.303-.277,1.755-.723Zm-3.255-1.777c0-.827.673-1.5,1.5-1.5s1.5.673,1.5,1.5c0,.74-.385,1.5-1.5,1.5-.827,0-1.5-.673-1.5-1.5Z"/>
</svg>
